<?xml version="1.0" encoding="utf-8"?>
<svg version="1.1" xmlns="http://www.w3.org/2000/svg" viewBox="0 0 169 140.4330930481983" width="338" height="280.8661860963966">
  <defs>
    <style>
      @font-face {
        font-family: "Virgil";
        src: url("https://excalidraw.com/Virgil.woff2");
      }
      @font-face {
        font-family: "Cascadia";
        src: url("https://excalidraw.com/Cascadia.woff2");
      }
    </style>
  </defs>
  <g transform="matrix(1, 0, 0, 1, 11.972721, 86.186493)" style="pointer-events: none;">
    <rect x="-7.553" y="-81.933" width="160.16" height="131.679" style="stroke: rgb(0, 0, 0); stroke-width: 0px;" rx="8" ry="8"/>
  </g>
  <g stroke-linecap="round" transform="matrix(1, 0, 0, 1, 0, 7)" style="pointer-events: none;">
    <g transform="translate(18.219822008405913 70.7359699156257) rotate(0 18.679500247428393 -7.904308335528441)">
      <path d="M0 0 C11.92 -5.04, 23.83 -10.09, 37.36 -15.81 M0 0 C12.98 -5.49, 25.96 -10.98, 37.36 -15.81" stroke-width="1" style="fill: rgb(255, 255, 255); stroke: rgb(0, 184, 255);"/>
    </g>
  </g>
  <g stroke-linecap="round" transform="matrix(1, 0, 0, 1, 0, 7)" style="pointer-events: none;">
    <g transform="translate(57.323053305918165 55.104453012117375) rotate(0 46.15394434741563 5.6181226555405885)">
      <path d="M0 0 C10.46 -0.06, 20.91 -0.12, 51.2 -0.28 M0 0 C17.98 -0.1, 35.95 -0.2, 51.2 -0.28 M51.2 -0.28 C67.37 4.36, 83.54 9, 92.31 11.52 M51.2 -0.28 C62.09 2.84, 72.97 5.97, 92.31 11.52" stroke-width="1" style="fill: rgb(255, 255, 255); stroke: rgb(0, 184, 255);"/>
    </g>
  </g>
  <g stroke-linecap="round" transform="matrix(1, 0, 0, 1, 0, 7)" style="pointer-events: none;">
    <g transform="translate(56.199257109588416 54.93495976287343) rotate(0 45.86948244080588 7.324894095198459)">
      <path d="M0 0 C18.64 0.76, 37.27 1.51, 52.63 2.13 M0 0 C11.76 0.48, 23.51 0.95, 52.63 2.13 M52.63 2.13 C63.3 5.55, 73.98 8.97, 91.74 14.65 M52.63 2.13 C64.64 5.98, 76.65 9.82, 91.74 14.65" stroke-width="1" style="fill: rgb(255, 255, 255); stroke: rgb(0, 184, 255);"/>
    </g>
  </g>
  <g stroke-linecap="round" transform="matrix(1, 0, 0, 1, 0, 7)" style="pointer-events: none;">
    <g transform="translate(56.845436327534344 55.04717439786404) rotate(0 45.22944315093423 8.818319104899132)">
      <path d="M0 0 C15.95 1.27, 31.9 2.55, 53.48 4.27 M0 0 C15.27 1.22, 30.55 2.44, 53.48 4.27 M53.48 4.27 C67.25 9.25, 81.02 14.22, 90.46 17.64 M53.48 4.27 C61.9 7.31, 70.32 10.35, 90.46 17.64" stroke-width="1" style="fill: rgb(255, 255, 255); stroke: rgb(0, 184, 255);"/>
    </g>
  </g>
  <g stroke-linecap="round" transform="matrix(1, 0, 0, 1, 0, 7)" style="pointer-events: none;">
    <g transform="translate(56.94395645052032 54.42495194663101) rotate(0 46.79398363728728 3.698004785925434)">
      <path d="M0 0 C10.65 -0.36, 21.3 -0.72, 50.63 -1.71 M0 0 C19.88 -0.67, 39.77 -1.34, 50.63 -1.71 M50.63 -1.71 C64.17 1.7, 77.71 5.11, 93.59 9.1 M50.63 -1.71 C67.41 2.52, 84.19 6.74, 93.59 9.1" stroke-width="1" style="fill: rgb(255, 255, 255); stroke: rgb(0, 184, 255);"/>
    </g>
  </g>
  <g stroke-linecap="round" transform="matrix(1, 0, 0, 1, 0, 7)" style="pointer-events: none;">
    <g transform="translate(56.3595722753746 54.403787389065116) rotate(0 44.8738657676721 10.66732149786182)">
      <path d="M0 0 C15.91 2.06, 31.83 4.12, 54.9 7.11 M0 0 C13.84 1.79, 27.69 3.59, 54.9 7.11 M54.9 7.11 C66.92 12.02, 78.95 16.93, 89.75 21.33 M54.9 7.11 C66.02 11.65, 77.13 16.19, 89.75 21.33" stroke-width="1" style="fill: rgb(255, 255, 255); stroke: rgb(0, 184, 255);"/>
    </g>
  </g>
  <g stroke-linecap="round" transform="matrix(1, 0, 0, 1, -0.112829, 6.123295)" style="pointer-events: none;">
    <g transform="translate(32.39783599432508 94.01908499861165) rotate(0.029772013701078855 48.215665098675686 -41.11647360769149)">
      <path d="M-1.22 -1.5 C15.89 -27.58, 33.84 -55.74, 50.05 -83.95 M-0.36 0.37 C13.32 -22.25, 25.83 -42.75, 51.23 -83.33 M53.33 -83.11 C67.65 -52.07, 86.66 -20.49, 97.65 -1.24 M52.4 -84.02 C67.73 -54.99, 82.17 -26.19, 95.04 -0.45 M95.98 -0.52 C67.35 0.06, 38.22 -0.14, -1.11 1.79 M96.42 -1.71 C66.83 1.14, 39.67 -0.2, 0.43 0.59" stroke-width="2" fill="none" style="stroke: rgb(255, 255, 255);"/>
    </g>
  </g>
  <path d="M 20.094 121.299 L 20.094 111.616 L 21.562 111.616 L 21.562 112.975 C 21.865 112.501 22.269 112.12 22.774 111.831 C 23.278 111.542 23.853 111.397 24.497 111.397 C 25.214 111.397 25.802 111.546 26.262 111.844 C 26.721 112.142 27.044 112.558 27.233 113.093 C 27.998 111.963 28.995 111.397 30.223 111.397 C 31.183 111.397 31.922 111.664 32.438 112.196 C 32.955 112.727 33.214 113.546 33.214 114.652 L 33.214 121.299 L 31.582 121.299 L 31.582 115.2 C 31.582 114.543 31.528 114.071 31.422 113.782 C 31.315 113.493 31.123 113.261 30.843 113.085 C 30.563 112.908 30.235 112.82 29.858 112.82 C 29.177 112.82 28.612 113.047 28.162 113.499 C 27.713 113.952 27.488 114.676 27.488 115.673 L 27.488 121.299 L 25.847 121.299 L 25.847 115.008 C 25.847 114.279 25.713 113.732 25.446 113.367 C 25.178 113.002 24.741 112.82 24.133 112.82 C 23.67 112.82 23.244 112.941 22.852 113.185 C 22.459 113.428 22.175 113.784 21.999 114.252 C 21.823 114.719 21.735 115.394 21.735 116.276 L 21.735 121.299 L 20.094 121.299 Z M 34.99 118.409 L 36.613 118.154 C 36.704 118.804 36.958 119.303 37.375 119.649 C 37.791 119.995 38.372 120.169 39.121 120.169 C 39.874 120.169 40.433 120.015 40.798 119.708 C 41.162 119.401 41.345 119.041 41.345 118.628 C 41.345 118.257 41.184 117.965 40.862 117.753 C 40.636 117.607 40.077 117.421 39.184 117.197 C 37.98 116.892 37.146 116.63 36.681 116.408 C 36.216 116.186 35.864 115.879 35.624 115.487 C 35.384 115.095 35.264 114.662 35.264 114.188 C 35.264 113.756 35.363 113.356 35.56 112.989 C 35.757 112.621 36.026 112.316 36.367 112.072 C 36.622 111.884 36.97 111.724 37.411 111.594 C 37.851 111.463 38.324 111.397 38.828 111.397 C 39.588 111.397 40.255 111.507 40.83 111.726 C 41.404 111.945 41.828 112.241 42.101 112.615 C 42.375 112.989 42.564 113.489 42.667 114.115 L 41.062 114.334 C 40.989 113.836 40.778 113.446 40.429 113.167 C 40.079 112.887 39.585 112.747 38.947 112.747 C 38.194 112.747 37.655 112.872 37.333 113.121 C 37.011 113.37 36.85 113.662 36.85 113.996 C 36.85 114.209 36.917 114.4 37.051 114.57 C 37.184 114.747 37.394 114.893 37.68 115.008 C 37.844 115.069 38.327 115.209 39.129 115.427 C 40.29 115.737 41.1 115.992 41.559 116.189 C 42.018 116.386 42.378 116.674 42.64 117.051 C 42.901 117.427 43.032 117.895 43.032 118.454 C 43.032 119.002 42.872 119.517 42.553 120 C 42.233 120.484 41.773 120.857 41.172 121.121 C 40.57 121.386 39.889 121.518 39.129 121.518 C 37.871 121.518 36.912 121.256 36.253 120.734 C 35.593 120.212 35.173 119.437 34.99 118.409 Z M 44.682 122.101 L 46.277 122.339 C 46.344 122.831 46.529 123.19 46.834 123.414 C 47.24 123.718 47.797 123.87 48.502 123.87 C 49.262 123.87 49.848 123.718 50.262 123.414 C 50.675 123.11 50.954 122.685 51.1 122.138 C 51.186 121.804 51.225 121.102 51.219 120.032 C 50.501 120.877 49.608 121.299 48.539 121.299 C 47.207 121.299 46.177 120.819 45.448 119.859 C 44.718 118.898 44.353 117.747 44.353 116.403 C 44.353 115.479 44.52 114.626 44.855 113.846 C 45.189 113.065 45.674 112.461 46.309 112.036 C 46.944 111.61 47.69 111.397 48.547 111.397 C 49.69 111.397 50.632 111.86 51.374 112.783 L 51.374 111.616 L 52.887 111.616 L 52.887 119.986 C 52.887 121.494 52.734 122.562 52.427 123.191 C 52.12 123.82 51.634 124.317 50.968 124.682 C 50.303 125.046 49.484 125.229 48.511 125.229 C 47.356 125.229 46.423 124.969 45.712 124.449 C 45.001 123.93 44.658 123.147 44.682 122.101 Z M 46.04 116.284 C 46.04 117.555 46.292 118.482 46.797 119.065 C 47.301 119.649 47.933 119.941 48.693 119.941 C 49.447 119.941 50.079 119.651 50.59 119.07 C 51.1 118.49 51.356 117.579 51.356 116.339 C 51.356 115.154 51.093 114.26 50.567 113.659 C 50.041 113.057 49.408 112.756 48.666 112.756 C 47.937 112.756 47.316 113.052 46.806 113.645 C 46.295 114.238 46.04 115.117 46.04 116.284 Z M 54.711 118.409 L 56.334 118.154 C 56.424 118.804 56.679 119.303 57.095 119.649 C 57.511 119.995 58.093 120.169 58.841 120.169 C 59.594 120.169 60.154 120.015 60.518 119.708 C 60.883 119.401 61.065 119.041 61.065 118.628 C 61.065 118.257 60.904 117.965 60.582 117.753 C 60.357 117.607 59.798 117.421 58.905 117.197 C 57.701 116.892 56.867 116.63 56.402 116.408 C 55.936 116.186 55.584 115.879 55.344 115.487 C 55.104 115.095 54.984 114.662 54.984 114.188 C 54.984 113.756 55.083 113.356 55.28 112.989 C 55.478 112.621 55.747 112.316 56.087 112.072 C 56.342 111.884 56.691 111.724 57.131 111.594 C 57.572 111.463 58.044 111.397 58.549 111.397 C 59.309 111.397 59.976 111.507 60.55 111.726 C 61.125 111.945 61.549 112.241 61.822 112.615 C 62.096 112.989 62.284 113.489 62.388 114.115 L 60.783 114.334 C 60.709 113.836 60.498 113.446 60.149 113.167 C 59.8 112.887 59.305 112.747 58.668 112.747 C 57.914 112.747 57.375 112.872 57.054 113.121 C 56.731 113.37 56.571 113.662 56.571 113.996 C 56.571 114.209 56.637 114.4 56.771 114.57 C 56.905 114.747 57.115 114.893 57.4 115.008 C 57.564 115.069 58.047 115.209 58.85 115.427 C 60.01 115.737 60.821 115.992 61.279 116.189 C 61.738 116.386 62.099 116.674 62.36 117.051 C 62.622 117.427 62.752 117.895 62.752 118.454 C 62.752 119.002 62.592 119.517 62.274 120 C 61.954 120.484 61.493 120.857 60.892 121.121 C 60.29 121.386 59.609 121.518 58.85 121.518 C 57.592 121.518 56.633 121.256 55.973 120.734 C 55.313 120.212 54.893 119.437 54.711 118.409 Z M 64.703 125.01 L 64.703 111.616 L 66.198 111.616 L 66.198 112.875 C 66.55 112.382 66.948 112.013 67.393 111.767 C 67.836 111.521 68.374 111.397 69.006 111.397 C 69.833 111.397 70.562 111.61 71.194 112.036 C 71.827 112.461 72.303 113.061 72.626 113.837 C 72.948 114.612 73.11 115.461 73.11 116.385 C 73.11 117.375 72.932 118.268 72.576 119.061 C 72.22 119.854 71.704 120.462 71.026 120.884 C 70.348 121.307 69.635 121.518 68.888 121.518 C 68.341 121.518 67.85 121.403 67.415 121.172 C 66.98 120.94 66.624 120.649 66.344 120.296 L 66.344 125.01 L 64.703 125.01 Z M 66.189 116.512 C 66.189 117.759 66.442 118.68 66.946 119.275 C 67.45 119.871 68.061 120.169 68.778 120.169 C 69.508 120.169 70.132 119.86 70.652 119.243 C 71.172 118.626 71.432 117.67 71.432 116.376 C 71.432 115.142 71.178 114.218 70.67 113.604 C 70.163 112.99 69.557 112.683 68.852 112.683 C 68.152 112.683 67.534 113.01 66.996 113.663 C 66.458 114.317 66.189 115.267 66.189 116.512 Z M 81.716 118.181 L 83.411 118.391 C 83.144 119.381 82.649 120.15 81.926 120.698 C 81.202 121.244 80.278 121.518 79.153 121.518 C 77.737 121.518 76.615 121.082 75.785 120.21 C 74.956 119.337 74.541 118.114 74.541 116.54 C 74.541 114.911 74.96 113.647 75.798 112.747 C 76.637 111.848 77.725 111.397 79.063 111.397 C 80.357 111.397 81.415 111.838 82.236 112.72 C 83.056 113.601 83.466 114.841 83.466 116.44 C 83.466 116.537 83.463 116.683 83.457 116.877 L 76.236 116.877 C 76.297 117.941 76.597 118.756 77.139 119.321 C 77.68 119.886 78.355 120.169 79.163 120.169 C 79.764 120.169 80.278 120.011 80.704 119.695 C 81.129 119.379 81.466 118.874 81.716 118.181 Z M 76.327 115.528 L 81.734 115.528 C 81.661 114.714 81.454 114.103 81.114 113.696 C 80.591 113.063 79.913 112.747 79.081 112.747 C 78.327 112.747 77.694 112.999 77.18 113.504 C 76.666 114.008 76.382 114.683 76.327 115.528 Z M 91.79 117.753 L 93.404 117.962 C 93.228 119.074 92.776 119.945 92.05 120.574 C 91.323 121.203 90.432 121.518 89.374 121.518 C 88.049 121.518 86.984 121.085 86.178 120.219 C 85.373 119.353 84.971 118.112 84.971 116.494 C 84.971 115.449 85.143 114.534 85.49 113.75 C 85.836 112.966 86.364 112.378 87.072 111.986 C 87.78 111.594 88.55 111.397 89.383 111.397 C 90.434 111.397 91.295 111.664 91.963 112.196 C 92.632 112.727 93.06 113.483 93.249 114.461 L 91.653 114.707 C 91.501 114.057 91.232 113.567 90.846 113.239 C 90.46 112.911 89.994 112.747 89.447 112.747 C 88.62 112.747 87.948 113.043 87.432 113.636 C 86.915 114.229 86.657 115.167 86.657 116.449 C 86.657 117.749 86.906 118.694 87.405 119.285 C 87.903 119.874 88.553 120.169 89.356 120.169 C 90 120.169 90.538 119.971 90.97 119.576 C 91.401 119.181 91.674 118.573 91.79 117.753 Z" style="fill: rgb(255, 255, 255); text-wrap-mode: nowrap;"/>
  <path d="M 94.171 117.287 L 94.171 115.637 L 99.213 115.637 L 99.213 117.287 L 94.171 117.287 Z M 107.344 117.753 L 108.958 117.962 C 108.782 119.074 108.33 119.945 107.604 120.574 C 106.877 121.203 105.986 121.518 104.928 121.518 C 103.603 121.518 102.538 121.085 101.732 120.219 C 100.927 119.353 100.525 118.112 100.525 116.494 C 100.525 115.449 100.697 114.534 101.044 113.75 C 101.39 112.966 101.918 112.378 102.626 111.986 C 103.334 111.594 104.104 111.397 104.937 111.397 C 105.988 111.397 106.849 111.664 107.518 112.196 C 108.186 112.727 108.615 113.483 108.803 114.461 L 107.207 114.707 C 107.055 114.057 106.786 113.567 106.401 113.239 C 106.014 112.911 105.548 112.747 105.001 112.747 C 104.174 112.747 103.502 113.043 102.986 113.636 C 102.469 114.229 102.211 115.167 102.211 116.449 C 102.211 117.749 102.46 118.694 102.959 119.285 C 103.457 119.874 104.107 120.169 104.91 120.169 C 105.554 120.169 106.092 119.971 106.524 119.576 C 106.955 119.181 107.228 118.573 107.344 117.753 Z M 109.751 116.458 C 109.751 114.664 110.249 113.337 111.247 112.474 C 112.079 111.756 113.094 111.397 114.292 111.397 C 115.623 111.397 116.71 111.834 117.555 112.706 C 118.4 113.578 118.823 114.783 118.823 116.321 C 118.823 117.567 118.636 118.547 118.262 119.261 C 117.888 119.975 117.344 120.53 116.63 120.925 C 115.915 121.321 115.136 121.518 114.292 121.518 C 112.936 121.518 111.84 121.083 111.005 120.214 C 110.168 119.345 109.751 118.093 109.751 116.458 Z M 111.438 116.458 C 111.438 117.697 111.708 118.626 112.249 119.243 C 112.79 119.86 113.471 120.169 114.292 120.169 C 115.106 120.169 115.783 119.859 116.325 119.239 C 116.866 118.619 117.136 117.673 117.136 116.403 C 117.136 115.206 116.864 114.298 116.32 113.682 C 115.776 113.065 115.1 112.756 114.292 112.756 C 113.471 112.756 112.79 113.063 112.249 113.677 C 111.708 114.291 111.438 115.218 111.438 116.458 Z M 120.746 121.299 L 120.746 111.616 L 122.223 111.616 L 122.223 112.993 C 122.934 111.93 123.962 111.397 125.305 111.397 C 125.889 111.397 126.425 111.502 126.914 111.712 C 127.404 111.922 127.77 112.197 128.013 112.537 C 128.256 112.878 128.426 113.282 128.523 113.75 C 128.584 114.054 128.615 114.586 128.615 115.345 L 128.615 121.299 L 126.974 121.299 L 126.974 115.409 C 126.974 114.74 126.909 114.241 126.782 113.91 C 126.654 113.578 126.428 113.314 126.103 113.116 C 125.777 112.919 125.396 112.82 124.959 112.82 C 124.259 112.82 123.656 113.042 123.149 113.485 C 122.641 113.929 122.387 114.771 122.387 116.011 L 122.387 121.299 L 120.746 121.299 Z M 131.523 121.299 L 131.523 112.893 L 130.073 112.893 L 130.073 111.616 L 131.523 111.616 L 131.523 110.587 C 131.523 109.936 131.58 109.453 131.696 109.137 C 131.854 108.711 132.132 108.367 132.531 108.102 C 132.928 107.837 133.486 107.705 134.203 107.705 C 134.665 107.705 135.175 107.76 135.735 107.869 L 135.489 109.301 C 135.148 109.24 134.826 109.209 134.522 109.209 C 134.024 109.209 133.672 109.316 133.465 109.529 C 133.258 109.742 133.155 110.14 133.155 110.723 L 133.155 111.616 L 135.042 111.616 L 135.042 112.893 L 133.155 112.893 L 133.155 121.299 L 131.523 121.299 Z M 136.328 109.82 L 136.328 107.933 L 137.969 107.933 L 137.969 109.82 L 136.328 109.82 Z M 136.328 121.299 L 136.328 111.616 L 137.969 111.616 L 137.969 121.299 L 136.328 121.299 Z M 140.166 122.101 L 141.761 122.339 C 141.828 122.831 142.013 123.19 142.318 123.414 C 142.724 123.718 143.281 123.87 143.986 123.87 C 144.746 123.87 145.332 123.718 145.746 123.414 C 146.159 123.11 146.438 122.685 146.585 122.138 C 146.67 121.804 146.709 121.102 146.703 120.032 C 145.985 120.877 145.092 121.299 144.023 121.299 C 142.692 121.299 141.661 120.819 140.932 119.859 C 140.202 118.898 139.837 117.747 139.837 116.403 C 139.837 115.479 140.004 114.626 140.339 113.846 C 140.673 113.065 141.158 112.461 141.793 112.036 C 142.428 111.61 143.174 111.397 144.031 111.397 C 145.174 111.397 146.117 111.86 146.858 112.783 L 146.858 111.616 L 148.371 111.616 L 148.371 119.986 C 148.371 121.494 148.218 122.562 147.911 123.191 C 147.604 123.82 147.118 124.317 146.452 124.682 C 145.787 125.046 144.968 125.229 143.995 125.229 C 142.84 125.229 141.907 124.969 141.196 124.449 C 140.485 123.93 140.142 123.147 140.166 122.101 Z M 141.525 116.284 C 141.525 117.555 141.777 118.482 142.281 119.065 C 142.785 119.649 143.417 119.941 144.177 119.941 C 144.931 119.941 145.563 119.651 146.074 119.07 C 146.584 118.49 146.84 117.579 146.84 116.339 C 146.84 115.154 146.577 114.26 146.051 113.659 C 145.525 113.057 144.892 112.756 144.15 112.756 C 143.421 112.756 142.8 113.052 142.29 113.645 C 141.779 114.238 141.525 115.117 141.525 116.284 Z" style="fill: rgb(0, 184, 255); text-wrap-mode: nowrap;"/>
</svg>